<?xml version="1.0" standalone="no"?><!DOCTYPE svg PUBLIC "-//W3C//DTD SVG 1.1//EN" "http://www.w3.org/Graphics/SVG/1.1/DTD/svg11.dtd"><svg t="1549943567054" class="icon" style="" viewBox="0 0 1024 1024" version="1.1" xmlns="http://www.w3.org/2000/svg" p-id="6153" xmlns:xlink="http://www.w3.org/1999/xlink" width="128" height="128"><defs><style type="text/css"></style></defs><path d="M512 492.5c108.7 0 196.9-88.3 196.9-197.2 0-108.9-88.2-197.1-196.9-197.1-108.8 0-196.9 88.2-196.9 197.1 0 108.9 88.1 197.2 196.9 197.2z m0-335.2c76 0 137.8 61.9 137.8 138 0 76.2-61.8 138.1-137.8 138.1-76 0-137.8-61.9-137.8-138.1 0-76.1 61.8-138 137.8-138zM865.8 804.4v-19.1c0-163.1-19.3-273.4-196.9-273.4H355.1c-177.7 0-196.9 110.3-196.9 273.4v19.1c0 3.6-0.8 31.5-0.7 60 0.2 26.1 15.4 41.5 42 41.5h625.4c25.8 0 41.4-15.1 41.6-42.4 0.1-28.7-0.7-55.6-0.7-59.1z m-649.2 42.3c0.1-14.4 0.4-27.2 0.5-34.6l0.1-7.8v-19.1c0-176.3 24.5-214.3 137.9-214.3h313.7c113.4 0 137.9 38.1 137.9 214.3v19.1l0.2 7.9c0.2 7.3 0.5 20 0.6 34.5H216.6z" fill="#3190e8" p-id="6154"></path></svg>