<?xml version="1.0" standalone="no"?><!DOCTYPE svg PUBLIC "-//W3C//DTD SVG 1.1//EN" "http://www.w3.org/Graphics/SVG/1.1/DTD/svg11.dtd"><svg t="1549943443735" class="icon" style="" viewBox="0 0 1024 1024" version="1.1" xmlns="http://www.w3.org/2000/svg" p-id="3080" xmlns:xlink="http://www.w3.org/1999/xlink" width="200" height="200"><defs><style type="text/css"></style></defs><path d="M512 152c-198.824 0-360 161.176-360 360s161.176 360 360 360 360-161.176 360-360-161.176-360-360-360z m0 681.432c-177.232 0-321.432-144.192-321.432-321.432S334.768 190.568 512 190.568 833.432 334.768 833.432 512 689.232 833.432 512 833.432z" fill="#000000" p-id="3081"></path><path d="M703.784 317.2a9.12 9.12 0 0 0-11.576-1L469.192 470.096a9.608 9.608 0 0 0-1.304 1.104l-0.04-0.088-0.304 0.456a9.544 9.544 0 0 0-1.36 2.04L319.016 695.24a9.112 9.112 0 0 0 7.6 14.168c1.8 0 3.608-0.528 5.184-1.608l219.808-151.256c1.632-0.688 3.064-1.832 4.072-3.344l149.296-224.44a9.136 9.136 0 0 0-1.192-11.56zM396.248 628.76l86.848-130.416 42.904 41.056-129.752 89.36z" fill="#000000" p-id="3082"></path></svg>